# xmcd CD database file
# Copyright (C) 1993-1998 Ti Kan
#
# Track frame offsets:
#  150
#  11220
#  19185
#  34107
#  49105
#  63880
#  76477
#  96125
#  111232
#  126942
#  137000
#  156572
#  171757
#  191937
#  205000
#  229780
#  240125
#  259415
#  278887
#  313620
#
# Disc length: 4440 seconds
#
# Revision: 1
# Processed by: cddbd v1.4b41PL1 Copyright (c) Steve Scherf et al.
# Submitted via: CDWizzard Release:4.32
#
DISCID=1a115614
DTITLE=Jimmy Shand - Jimmy Shand
DYEAR=1900
DGENRE=
TTITLE0=Bluebell Polka
TTITLE1=Bonnie Anne Glendaruel Highlanders (Jig)
TTITLE2=Dashing White Sergeant (Reel)
TTITLE3=Waltz Country Dance
TTITLE4=Marching with Jimmy Shand
TTITLE5=White Heather Jig (Six-Twenty Two Step)
TTITLE6=Maxwell's Rant (Reel)
TTITLE7=Waltz Country Dance
TTITLE8=The Stein Song
TTITLE9=Angus MacLeod (Reel)
TTITLE10=Peggy's Wedding (Jig)
TTITLE11=Valeta (Set Dance)
TTITLE12=De'il Amang the Tailors (Reel)
TTITLE13=Waltz Selection
TTITLE14=Mairi's Wedding (Reel)
TTITLE15=The Campbells Are Coming (6/8)
TTITLE16=Rock and Wee Pickle Tow (Jig)
TTITLE17=The Black Dance (Reel)
TTITLE18=The Braes o' Tullymet
TTITLE19=Hooper's Jig
EXTD=
EXTT0=
EXTT1=
EXTT2=
EXTT3=
EXTT4=
EXTT5=
EXTT6=
EXTT7=
EXTT8=
EXTT9=
EXTT10=
EXTT11=
EXTT12=
EXTT13=
EXTT14=
EXTT15=
EXTT16=
EXTT17=
EXTT18=
EXTT19=
PLAYORDER=
